<svg width="43" height="45" viewBox="0 0 43 45" fill="none" xmlns="http://www.w3.org/2000/svg">
<path d="M37.625 24.375C37.625 19.3749 36.7292 15 35.8333 14.375C35.2593 13.9744 32.4772 13.5739 28.6667 13.3379C26.5315 13.2056 30.4583 9.375 21.5 9.375C12.5417 9.375 16.4684 13.2056 14.3333 13.3379C10.5227 13.5739 7.74081 13.9744 7.16667 14.375C6.27083 15 5.375 19.3749 5.375 24.375C5.375 29.3751 6.27083 33.75 7.16667 34.3749C8.0625 35.0001 14.3333 35.625 21.5 35.625C28.6667 35.625 34.9375 35.0001 35.8333 34.3749C36.7292 33.75 37.625 29.3751 37.625 24.375Z" stroke="#035014" stroke-width="1.5" stroke-linecap="round" stroke-linejoin="round"/>
<path d="M21.5 30C24.4686 30 26.875 27.4817 26.875 24.375C26.875 21.2683 24.4686 18.75 21.5 18.75C18.5314 18.75 16.125 21.2683 16.125 24.375C16.125 27.4817 18.5314 30 21.5 30Z" stroke="#035014" stroke-width="1.5" stroke-linecap="round" stroke-linejoin="round"/>
</svg>
